<?xml version="1.0" encoding="UTF-8" standalone="no"?>
<!-- Created with Inkscape (http://www.inkscape.org/) -->

<svg
   width="22.394735mm"
   height="10.609699mm"
   viewBox="0 0 22.394736 10.609699"
   version="1.1"
   id="svg1"
   inkscape:version="1.3.2 (091e20ef0f, 2023-11-25, custom)"
   sodipodi:docname="MTPy_Logo.svg"
   inkscape:export-filename="MTPy_Logo.png"
   inkscape:export-xdpi="306.43658"
   inkscape:export-ydpi="306.43658"
   xmlns:inkscape="http://www.inkscape.org/namespaces/inkscape"
   xmlns:sodipodi="http://sodipodi.sourceforge.net/DTD/sodipodi-0.dtd"
   xmlns:xlink="http://www.w3.org/1999/xlink"
   xmlns="http://www.w3.org/2000/svg"
   xmlns:svg="http://www.w3.org/2000/svg">
  <sodipodi:namedview
     id="namedview1"
     pagecolor="#ffffff"
     bordercolor="#666666"
     borderopacity="1.0"
     inkscape:showpageshadow="2"
     inkscape:pageopacity="0.0"
     inkscape:pagecheckerboard="0"
     inkscape:deskcolor="#d1d1d1"
     inkscape:document-units="mm"
     inkscape:zoom="10.561953"
     inkscape:cx="42.08502"
     inkscape:cy="24.758679"
     inkscape:window-width="1920"
     inkscape:window-height="1002"
     inkscape:window-x="0"
     inkscape:window-y="0"
     inkscape:window-maximized="1"
     inkscape:current-layer="layer3" />
  <defs
     id="defs1">
    <pattern
       inkscape:collect="always"
       xlink:href="#Strips4_1-5"
       preserveAspectRatio="xMidYMid"
       id="pattern23"
       patternTransform="matrix(0.14142136,0.14142136,-0.14142136,0.14142136,0,0)"
       x="0"
       y="0" />
    <pattern
       inkscape:collect="always"
       xlink:href="#pattern19"
       preserveAspectRatio="xMidYMid"
       id="pattern20"
       patternTransform="matrix(0.14142136,0.14142136,-0.14142136,0.14142136,0,0)"
       x="0"
       y="0" />
    <pattern
       inkscape:collect="always"
       patternUnits="userSpaceOnUse"
       width="1.25"
       height="1"
       patternTransform="translate(0,0) scale(2,2)"
       preserveAspectRatio="xMidYMid"
       id="pattern19"
       style="fill:#d56100"
       inkscape:stockid="Stripes 13 (4:1)"
       inkscape:isstock="true"
       inkscape:label="Stripes 13 (4:1)">
      <rect
   style="stroke:none"
   x="0"
   y="-0.5"
   width="1"
   height="2"
   id="rect18" />

    </pattern>
    <rect
       x="143.91278"
       y="405.98553"
       width="313.57837"
       height="128.76407"
       id="rect1" />
    <pattern
       inkscape:collect="always"
       patternUnits="userSpaceOnUse"
       width="1.25"
       height="1"
       patternTransform="translate(0,0) scale(2,2)"
       preserveAspectRatio="xMidYMid"
       id="Strips4_1-5"
       style="fill:#333333"
       inkscape:stockid="Stripes 13 (4:1)"
       inkscape:isstock="true"
       inkscape:label="Stripes 13 (4:1)">
      <rect
         style="stroke:none"
         x="0"
         y="-0.5"
         width="1"
         height="2"
         id="rect203-3" />
    </pattern>
    <rect
       x="143.91278"
       y="405.98553"
       width="313.57837"
       height="128.76407"
       id="rect1-5" />
    <pattern
       inkscape:collect="always"
       xlink:href="#Strips4_1-5"
       preserveAspectRatio="xMidYMid"
       id="pattern1"
       patternTransform="matrix(0.49497475,0.49497475,-0.49497475,0.49497475,0,0)"
       x="0"
       y="0" />
    <pattern
       inkscape:collect="always"
       xlink:href="#Strips4_1-5"
       preserveAspectRatio="xMidYMid"
       id="pattern3"
       patternTransform="matrix(0.49497475,0.49497475,-0.49497475,0.49497475,0,0)"
       x="0"
       y="0" />
    <rect
       x="143.91278"
       y="405.98553"
       width="313.57837"
       height="128.76407"
       id="rect9" />
    <pattern
       inkscape:collect="always"
       patternUnits="userSpaceOnUse"
       width="1.25"
       height="1"
       patternTransform="translate(0,0) scale(2,2)"
       preserveAspectRatio="xMidYMid"
       id="Strips4_1-5-6"
       style="fill:#333333"
       inkscape:stockid="Stripes 13 (4:1)"
       inkscape:isstock="true"
       inkscape:label="Stripes 13 (4:1)">
      <rect
         style="stroke:none"
         x="0"
         y="-0.5"
         width="1"
         height="2"
         id="rect203-3-1" />
    </pattern>
    <rect
       x="143.91278"
       y="405.98553"
       width="313.57837"
       height="128.76407"
       id="rect1-5-8" />
    <pattern
       inkscape:collect="always"
       xlink:href="#Strips4_1-5-6"
       preserveAspectRatio="xMidYMid"
       id="pattern1-7"
       patternTransform="matrix(0.49497475,0.49497475,-0.49497475,0.49497475,0,0)"
       x="0"
       y="0" />
    <pattern
       inkscape:collect="always"
       xlink:href="#Strips4_1-5-6"
       preserveAspectRatio="xMidYMid"
       id="pattern3-2"
       patternTransform="matrix(0.49497475,0.49497475,-0.49497475,0.49497475,0,0)"
       x="0"
       y="0" />
  </defs>
  <g
     inkscape:label="Layer 1"
     inkscape:groupmode="layer"
     id="layer1"
     transform="translate(-38.046878,-106.79312)" />
  <g
     inkscape:groupmode="layer"
     id="layer2"
     inkscape:label="Layer 2"
     transform="translate(0.125,2.1574967)" />
  <g
     inkscape:groupmode="layer"
     id="layer3"
     inkscape:label="Layer 3"
     transform="translate(0.125,2.1574967)">
    <g
       id="g29">
      <g
         id="g13"
         transform="translate(-38.171877,-108.95062)">
        <path
           style="fill:none;stroke:#000000;stroke-width:0.264836px;stroke-linecap:round;stroke-linejoin:miter;stroke-opacity:1"
           d="m 44.277075,115.1207 2.17915,-6.03766"
           id="path11" />
        <path
           style="fill:none;stroke:#000000;stroke-width:0.26432px;stroke-linecap:round;stroke-linejoin:miter;stroke-opacity:1"
           d="m 47.884106,115.12082 3.645122,-6.03803"
           id="path12" />
        <path
           style="fill:none;stroke:#000000;stroke-width:0.264942px;stroke-linecap:round;stroke-linejoin:miter;stroke-opacity:1"
           d="m 51.546331,115.12064 4.109161,-4.61951"
           id="path13" />
      </g>
      <g
         id="g23"
         style="fill:url(#pattern23);fill-opacity:1">
        <path
           d="m 17.445964,1.5926676 0.67076,4.5774984 -0.110071,0.2030884 c -0.124178,0.2370664 -0.27095,0.4320606 -0.440283,0.5844604 -0.169334,0.1523999 -0.386868,0.2284099 -0.652157,0.2284099 -0.09596,0 -0.180354,-0.00576 -0.253731,-0.017053 -0.07902,-0.011289 -0.155549,-0.022301 -0.228927,-0.03359 V 8.126119 c 0.06773,0.022578 0.150025,0.039354 0.24598,0.050643 0.09596,0.016933 0.217047,0.025321 0.363802,0.025321 0.412044,0 0.784739,-0.112703 1.117761,-0.3384806 0.338667,-0.2201331 0.632211,-0.5645235 0.880567,-1.0330119 L 21.850346,1.5471924 H 20.495907 L 19.42052,3.7739299 c -0.107244,0.2314219 -0.194783,0.4431924 -0.262516,0.6351033 -0.06773,0.1862665 -0.129591,0.3498151 -0.186035,0.4909261 h -0.03411 c 0,-0.1636887 -0.0026,-0.3581661 -0.0083,-0.5839437 -0.0056,-0.2257775 -0.0198,-0.4344074 -0.04237,-0.6263183 L 18.658293,1.5471924 h -1.219047 z"
           style="font-size:32px;line-height:1.25;font-family:'Times New Roman';-inkscape-font-specification:'Times New Roman, Normal';font-variant-ligatures:none;white-space:pre;shape-inside:url(#rect9);display:inline;fill:url(#pattern23);fill-opacity:1;stroke:#000000;stroke-width:0.25;stroke-linejoin:round;stroke-dasharray:none"
           id="path23" />
        <path
           d="M 17.048572,2.039152 15.386141,3.9082886 C 15.519157,3.875662 15.64897,3.8383015 15.771647,3.7909831 16.166758,3.6329388 16.479703,3.3960039 16.711125,3.0799154 16.916831,2.7989502 17.025714,2.4494492 17.048572,2.039152 Z"
           style="font-size:32px;line-height:1.25;font-family:'Times New Roman';-inkscape-font-specification:'Times New Roman, Normal';font-variant-ligatures:none;white-space:pre;shape-inside:url(#rect9);display:inline;fill:url(#pattern23);fill-opacity:1;stroke:#000000;stroke-width:0.25;stroke-linejoin:round;stroke-dasharray:none"
           id="path22" />
        <path
           d="M 13.343888,0.15451253 12.071615,6.170166 h 1.261421 l 0.448552,-2.1502563 h 0.643371 c 0.34638,0 0.665789,-0.039166 0.961182,-0.1116211 L 17.048572,2.039152 c 0.0029,-0.051291 0.0098,-0.09965 0.0098,-0.1529622 0,-0.3499552 -0.06762,-0.6576525 -0.203088,-0.9229411 C 16.72548,0.69796008 16.510569,0.49195397 16.211414,0.34519857 15.917903,0.19844316 15.525807,0.12505697 15.034741,0.12505697 H 13.35009 Z M 14.39137,1.1751221 h 0.592728 c 0.536222,0 0.804086,0.2479468 0.804086,0.7446574 0,0.3273774 -0.115327,0.5842291 -0.346749,0.7704956 -0.231422,0.1862664 -0.536496,0.2795695 -0.914673,0.2795695 h -0.516248 z"
           style="font-size:32px;line-height:1.25;font-family:'Times New Roman';-inkscape-font-specification:'Times New Roman, Normal';font-variant-ligatures:none;white-space:pre;shape-inside:url(#rect9);display:inline;fill:url(#pattern23);fill-opacity:1;stroke:#000000;stroke-width:0.25;stroke-linejoin:round;stroke-dasharray:none"
           id="path21" />
        <path
           d="M 10.454142,2.6789062 8.8588908,4.2607218 8.4563314,6.170166 h 1.2557373 l 0.00878,-0.014469 z"
           style="font-size:32px;line-height:1.25;font-family:'Times New Roman';-inkscape-font-specification:'Times New Roman, Normal';font-variant-ligatures:none;white-space:pre;shape-inside:url(#rect9);display:inline;fill:url(#pattern23);fill-opacity:1;stroke:#000000;stroke-width:0.25;stroke-linejoin:round;stroke-dasharray:none"
           id="path20" />
      </g>
      <g
         id="g14"
         style="fill:url(#pattern20);fill-opacity:1;stroke:#000000;stroke-opacity:1"
         transform="translate(0.272851,-9.6836468)">
        <path
           d="M 1.1311971,9.8081868 -0.14727783,15.853813 H 0.98701986 L 1.5797485,13.042615 c 0.0508,-0.231422 0.095881,-0.468357 0.1353923,-0.711068 0.045156,-0.242711 0.084989,-0.465493 0.1188558,-0.668693 0.033867,-0.208844 0.056407,-0.37291 0.067696,-0.491443 h 0.03359 l 0.254248,4.682402 h 1.1596192 l 2.3538615,-4.682402 h 0.034106 C 5.691962,11.3351 5.6411164,11.52433 5.584672,11.738818 c -0.0508,0.208845 -0.104786,0.423239 -0.1612304,0.643372 -0.0508,0.214489 -0.095881,0.417871 -0.1353923,0.609782 l -0.6009969,2.861841 h 1.1601359 l 0.020671,-0.09819 v 0 L 7.1256632,9.8081868 H 5.3727987 L 3.1036865,14.329358 h -0.03359 L 2.7987956,9.8081868 Z"
           style="font-size:32px;line-height:1.25;font-family:'Times New Roman';-inkscape-font-specification:'Times New Roman, Normal';font-variant-ligatures:none;white-space:pre;shape-inside:url(#rect1-5-8);display:inline;fill:url(#pattern20);fill-opacity:1;stroke:#000000;stroke-width:0.25;stroke-linejoin:round;stroke-dasharray:none;stroke-opacity:1"
           id="path14" />
        <path
           d="M 7.9927938,9.8696818 7.7773031,10.875305 h 1.4562418 l -0.6469889,3.069063 1.594735,-1.581815 0.313676,-1.487248 h 1.456241 L 12.180135,9.8081868 H 8.0057129 Z"
           style="font-size:32px;line-height:1.25;font-family:'Times New Roman';-inkscape-font-specification:'Times New Roman, Normal';font-variant-ligatures:none;white-space:pre;shape-inside:url(#rect1-5-8);display:inline;fill:url(#pattern20);fill-opacity:1;stroke:#000000;stroke-width:0.25;stroke-linejoin:round;stroke-dasharray:none;stroke-opacity:1"
           id="path10" />
      </g>
      <path
         style="fill:none;stroke:#0f368f;stroke-width:0.249869;stroke-linecap:round;stroke-linejoin:miter;stroke-dasharray:none;stroke-opacity:0.7"
         d="M 8.859407,4.2607212 2.3046558,-4.1834514"
         id="path24" />
      <circle
         style="fill:#d58e00;fill-opacity:1;stroke:#0f368f;stroke-width:0.25;stroke-linecap:round;stroke-linejoin:round;stroke-miterlimit:10;stroke-dasharray:none;stroke-opacity:0.7;paint-order:fill markers stroke"
         id="path25"
         cx="8.8594074"
         cy="4.2607212"
         r="0.34999999" />
    </g>
    <path
       sodipodi:type="star"
       style="fill:#d58e00;fill-opacity:1;stroke:#d58e00;stroke-width:0.0349999;stroke-linecap:round;stroke-linejoin:round;stroke-miterlimit:10;stroke-dasharray:none;stroke-opacity:1;paint-order:fill markers stroke"
       id="path29"
       inkscape:flatsided="false"
       sodipodi:sides="5"
       sodipodi:cx="33.956814"
       sodipodi:cy="24.257832"
       sodipodi:r1="4.8397646"
       sodipodi:r2="0.48397645"
       sodipodi:arg1="0.9320719"
       sodipodi:arg2="1.5603904"
       inkscape:rounded="0"
       inkscape:randomized="0"
       d="m 36.842145,28.14347 -2.880295,-3.401688 -2.808881,3.460891 2.345137,-3.790503 -4.159495,-1.601931 4.32967,1.059029 0.238172,-4.450939 0.330745,4.445018 4.306694,-1.1489 -4.125258,1.688144 z"
       transform="matrix(0.26458333,0,0,0.26458333,-0.125,-2.1574967)"
       inkscape:transform-center-x="0.0041176807"
       inkscape:transform-center-y="-0.1183563" />
  </g>
</svg>
